<svg id="visual" viewBox="0 0 1920 1080" width="1920" height="1080" xmlns="http://www.w3.org/2000/svg" xmlns:xlink="http://www.w3.org/1999/xlink" version="1.1"><path d="M0 282L53.3 267.5C106.7 253 213.3 224 320 225.8C426.7 227.7 533.3 260.3 640 285.7C746.7 311 853.3 329 960 352.3C1066.7 375.7 1173.3 404.3 1280 386.3C1386.7 368.3 1493.3 303.7 1600 296.5C1706.7 289.3 1813.3 339.7 1866.7 364.8L1920 390L1920 0L1866.7 0C1813.3 0 1706.7 0 1600 0C1493.3 0 1386.7 0 1280 0C1173.3 0 1066.7 0 960 0C853.3 0 746.7 0 640 0C533.3 0 426.7 0 320 0C213.3 0 106.7 0 53.3 0L0 0Z" fill="#3a5c8f"></path><path d="M0 401L53.3 383C106.7 365 213.3 329 320 332.5C426.7 336 533.3 379 640 404.2C746.7 429.3 853.3 436.7 960 456.5C1066.7 476.3 1173.3 508.7 1280 492.5C1386.7 476.3 1493.3 411.7 1600 413.5C1706.7 415.3 1813.3 483.7 1866.7 517.8L1920 552L1920 388L1866.7 362.8C1813.3 337.7 1706.7 287.3 1600 294.5C1493.3 301.7 1386.7 366.3 1280 384.3C1173.3 402.3 1066.7 373.7 960 350.3C853.3 327 746.7 309 640 283.7C533.3 258.3 426.7 225.7 320 223.8C213.3 222 106.7 251 53.3 265.5L0 280Z" fill="#5e87c7"></path><path d="M0 584L53.3 553.5C106.7 523 213.3 462 320 460.2C426.7 458.3 533.3 515.7 640 555.2C746.7 594.7 853.3 616.3 960 643.3C1066.7 670.3 1173.3 702.7 1280 690.2C1386.7 677.7 1493.3 620.3 1600 615C1706.7 609.7 1813.3 656.3 1866.7 679.7L1920 703L1920 550L1866.7 515.8C1813.3 481.7 1706.7 413.3 1600 411.5C1493.3 409.7 1386.7 474.3 1280 490.5C1173.3 506.7 1066.7 474.3 960 454.5C853.3 434.7 746.7 427.3 640 402.2C533.3 377 426.7 334 320 330.5C213.3 327 106.7 363 53.3 381L0 399Z" fill="#85a4d5"></path><path d="M0 703L53.3 695.8C106.7 688.7 213.3 674.3 320 683.3C426.7 692.3 533.3 724.7 640 760.7C746.7 796.7 853.3 836.3 960 850.7C1066.7 865 1173.3 854 1280 841.3C1386.7 828.7 1493.3 814.3 1600 819.8C1706.7 825.3 1813.3 850.7 1866.7 863.3L1920 876L1920 701L1866.7 677.7C1813.3 654.3 1706.7 607.7 1600 613C1493.3 618.3 1386.7 675.7 1280 688.2C1173.3 700.7 1066.7 668.3 960 641.3C853.3 614.3 746.7 592.7 640 553.2C533.3 513.7 426.7 456.3 320 458.2C213.3 460 106.7 521 53.3 551.5L0 582Z" fill="#5e87c7"></path><path d="M0 1081L53.3 1081C106.7 1081 213.3 1081 320 1081C426.7 1081 533.3 1081 640 1081C746.7 1081 853.3 1081 960 1081C1066.7 1081 1173.3 1081 1280 1081C1386.7 1081 1493.3 1081 1600 1081C1706.7 1081 1813.3 1081 1866.7 1081L1920 1081L1920 874L1866.7 861.3C1813.3 848.7 1706.7 823.3 1600 817.8C1493.3 812.3 1386.7 826.7 1280 839.3C1173.3 852 1066.7 863 960 848.7C853.3 834.3 746.7 794.7 640 758.7C533.3 722.7 426.7 690.3 320 681.3C213.3 672.3 106.7 686.7 53.3 693.8L0 701Z" fill="#3a5c8f"></path></svg>